<?xml version="1.0" encoding="utf-8"?>
<!-- Generator: Adobe Illustrator 22.0.0, SVG Export Plug-In . SVG Version: 6.00 Build 0)  -->
<svg version="1.1" id="Camada_1" xmlns="http://www.w3.org/2000/svg" xmlns:xlink="http://www.w3.org/1999/xlink" x="0px" y="0px"
	 viewBox="0 0 600 600" style="enable-background:new 0 0 600 600;" xml:space="preserve">
<style type="text/css">
	.st0{fill:#F1F1F2;}
</style>
<g id="title_1_">
	<path id="path271385_1_" class="st0" d="M82.3,289.2v48.2h17.6v-48.2h19v-13.9H63.2v13.9H82.3z"/>
	<path id="path271387_1_" class="st0" d="M168,317.9c3.8-1.9,6.8-4.4,9-7.8c2.1-3.4,3.2-7.3,3.2-11.8c0-4.6-1.2-8.7-3.4-12.2
		c-2.3-3.5-5.5-6.1-9.6-8c-4.2-1.9-9.1-2.8-14.6-2.8h-28.4v13.8h27.3c3.5,0,6.3,0.8,8.2,2.4c1.8,1.6,2.8,3.9,2.8,6.7
		c0,2.9-1,5.1-2.8,6.7c-1.9,1.6-4.6,2.3-8.2,2.3h-27.3v30.1h17.6v-16.5h9.6l11.3,16.5h18.8L168,317.9z"/>
	<path id="path271389_1_" class="st0" d="M230.8,275.3h-17.3L186,337.4H204l4.9-12.1l5.1-13l8-19.9l8,19.9l5.1,13l4.9,12.1h18.3
		L230.8,275.3z"/>
	<path id="path271391_1_" class="st0" d="M272.1,334.2c5.1,2.8,11,4.1,17.6,4.1c5.7,0,10.7-1,15.4-3c4.5-2,8.3-4.9,11.4-8.7
		l-11.2-10.1c-4.1,4.9-9,7.3-14.6,7.3c-3.4,0-6.4-0.7-9.1-2.2c-2.7-1.4-4.7-3.5-6.1-6.2c-1.4-2.7-2.1-5.8-2.1-9.3
		c0-3.5,0.7-6.6,2.1-9.2c1.4-2.7,3.5-4.8,6.1-6.3c2.7-1.4,5.7-2.2,9.1-2.2c5.7,0,10.6,2.5,14.6,7.3l11.2-10.1
		c-3-3.7-6.8-6.7-11.4-8.7c-4.6-2-9.7-3-15.4-3c-6.6,0-12.4,1.4-17.6,4.2c-5.1,2.8-9.2,6.6-12.2,11.4c-3,5-4.4,10.5-4.4,16.7
		c0,6.2,1.4,11.8,4.4,16.7C262.9,327.7,267,331.5,272.1,334.2L272.1,334.2z"/>
	<path id="path271393_1_" class="st0" d="M338.3,289.2v48.2h17.6v-48.2h19v-13.9h-55.6v13.9H338.3z"/>
	<path id="path271395_1_" class="st0" d="M380.2,275.3v62.1h17.6v-62.1H380.2z"/>
	<path id="path271397_1_" class="st0" d="M446.4,275.3h-17.3l-27.4,62.1h17.9l4.9-12.1l5.1-13l8-19.9l8,19.9l5.1,13l4.9,12.1h18.3
		L446.4,275.3z"/>
	<path id="path271399_1_" class="st0" d="M477.8,337.4H495l0.1-18.6l-17.2-21.9L477.8,337.4z M519.6,275.3l-0.1,17.8l17.2,20.8
		l0.1-38.6H519.6z M519.6,308.4l-27.4-33.1h-14.5v8.3l17.2,20.8l27.4,33.1h14.5v-7.2L519.6,308.4L519.6,308.4z"/>
</g>
</svg>
